<?xml version="1.0" encoding="UTF-8" standalone="no"?>
<!-- Created with Inkscape (http://www.inkscape.org/) -->

<svg
   width="3840mm"
   height="1080mm"
   viewBox="0 0 3840 1080"
   version="1.1"
   id="svg5"
   sodipodi:docname="astronaut_sheriff_tropical.svg"
   inkscape:version="1.1.2 (0a00cf5339, 2022-02-04, custom)"
   inkscape:export-filename="/home/wallpapers/astronaut_sheriff_tropical.png"
   inkscape:export-xdpi="25.400002"
   inkscape:export-ydpi="25.400002"
   xmlns:inkscape="http://www.inkscape.org/namespaces/inkscape"
   xmlns:sodipodi="http://sodipodi.sourceforge.net/DTD/sodipodi-0.dtd"
   xmlns:xlink="http://www.w3.org/1999/xlink"
   xmlns="http://www.w3.org/2000/svg"
   xmlns:svg="http://www.w3.org/2000/svg">
  <sodipodi:namedview
     id="namedview7"
     pagecolor="#ffffff"
     bordercolor="#666666"
     borderopacity="1.0"
     inkscape:pageshadow="2"
     inkscape:pageopacity="0"
     inkscape:pagecheckerboard="0"
     inkscape:document-units="mm"
     showgrid="false"
     inkscape:zoom="0.32"
     inkscape:cx="6684.375"
     inkscape:cy="1995.3125"
     inkscape:window-width="1899"
     inkscape:window-height="1052"
     inkscape:window-x="0"
     inkscape:window-y="0"
     inkscape:window-maximized="1"
     inkscape:current-layer="g13666"
     width="3840mm" />
  <defs
     id="defs2">
    <linearGradient
       inkscape:collect="always"
       id="linearGradient5537">
      <stop
         style="stop-color:#00fff8;stop-opacity:1"
         offset="0"
         id="stop5533" />
      <stop
         style="stop-color:#ff9600;stop-opacity:1"
         offset="1"
         id="stop5535" />
    </linearGradient>
    <marker
       style="overflow:visible"
       id="Arrow1Lstart"
       refX="0"
       refY="0"
       orient="auto"
       inkscape:stockid="Arrow1Lstart"
       inkscape:isstock="true">
      <path
         transform="matrix(0.8,0,0,0.8,10,0)"
         style="fill:context-stroke;fill-rule:evenodd;stroke:context-stroke;stroke-width:1pt"
         d="M 0,0 5,-5 -12.5,0 5,5 Z"
         id="path1505" />
    </marker>
    <filter
       id="mask-powermask-path-effect8725_inverse"
       inkscape:label="filtermask-powermask-path-effect8725"
       style="color-interpolation-filters:sRGB"
       height="100"
       width="100"
       x="-50"
       y="-50">
      <feColorMatrix
         id="mask-powermask-path-effect8725_primitive1"
         values="1"
         type="saturate"
         result="fbSourceGraphic" />
      <feColorMatrix
         id="mask-powermask-path-effect8725_primitive2"
         values="-1 0 0 0 1 0 -1 0 0 1 0 0 -1 0 1 0 0 0 1 0 "
         in="fbSourceGraphic" />
    </filter>
    <filter
       id="mask-powermask-path-effect8802_inverse"
       inkscape:label="filtermask-powermask-path-effect8802"
       style="color-interpolation-filters:sRGB"
       height="100"
       width="100"
       x="-50"
       y="-50">
      <feColorMatrix
         id="mask-powermask-path-effect8802_primitive1"
         values="1"
         type="saturate"
         result="fbSourceGraphic" />
      <feColorMatrix
         id="mask-powermask-path-effect8802_primitive2"
         values="-1 0 0 0 1 0 -1 0 0 1 0 0 -1 0 1 0 0 0 1 0 "
         in="fbSourceGraphic" />
    </filter>
    <clipPath
       clipPathUnits="userSpaceOnUse"
       id="clipPath13388">
      <use
         x="0"
         y="0"
         xlink:href="#g13384"
         id="use13390"
         width="100%"
         height="100%" />
    </clipPath>
    <linearGradient
       inkscape:collect="always"
       xlink:href="#linearGradient5537"
       id="linearGradient5539"
       x1="791.86456"
       y1="-417.60532"
       x2="3089.6223"
       y2="1471.9741"
       gradientUnits="userSpaceOnUse" />
    <clipPath
       clipPathUnits="userSpaceOnUse"
       id="clipPath2156">
      <path
         id="path2158"
         style="color:#000000;fill:#00a387;stroke-width:1;-inkscape-stroke:none"
         d="M 108.3594,129.64848 C 67.992292,162.92005 58.738146,215.5096 58.738146,215.5096 l 14.754191,2.71099 c 0,0 9.231241,-48.00386 44.406123,-76.99586 z m 14.79689,9.50792 c -39.77135,36.78804 -47.929891,83.11127 -47.929891,83.11127 l 5.908551,1.04274 c 0,0 7.863497,-44.38587 46.09536,-79.74991 z"
         inkscape:label="shine" />
    </clipPath>
  </defs>
  <g
     inkscape:label="layer"
     id="layer1"
     inkscape:groupmode="layer"
     sodipodi:insensitive="true">
    <rect
       style="display:inline;mix-blend-mode:normal;fill:url(#linearGradient5539);fill-opacity:1;fill-rule:nonzero;stroke-width:1.84235"
       id="rect9941"
       width="3840"
       height="1080"
       x="0"
       y="0"
       inkscape:export-filename="/home/rect9941.png"
       inkscape:export-xdpi="25.400002"
       inkscape:export-ydpi="25.400002"
       inkscape:label="background" />
    <path
       id="path53"
       style="display:inline;fill:#cd8a3b;fill-opacity:1;fill-rule:evenodd;stroke-width:1.47633"
       d="m 7261.9062,1866.0586 c -144.9906,0 -267.0651,99.8533 -303.6035,235.7207 h -11.0136 c -13.664,0 -24.6641,18.1002 -24.6641,40.584 v 86.3047 c 0,22.4838 11.0001,40.584 24.6641,40.584 h 5.7207 c 28.3139,186.1414 155.8366,252.5 308.8964,252.5 153.0476,0 280.5639,-66.4822 308.8926,-252.5 h 6.666 c 13.664,0 24.6641,-18.1002 24.6641,-40.584 v -86.3047 c 0,-22.4838 -11.0001,-40.584 -24.6641,-40.584 h -11.9531 c -36.5384,-135.8674 -158.6139,-235.7207 -303.6055,-235.7207 z"
       transform="scale(0.26458333)"
       inkscape:label="helmet" />
    <g
       id="g13666"
       inkscape:label="hat"
       transform="matrix(1.4763341,0,0,1.4763342,1763.6684,330.22599)"
       inkscape:export-filename="/home/path53.png"
       inkscape:export-xdpi="25.400002"
       inkscape:export-ydpi="25.400002">
      <path
         id="path8010"
         style="display:inline;fill:#3ea955;fill-opacity:1;stroke-width:0.211797"
         d="m 105.69067,58.777944 c -8.120843,-0.0693 -15.190884,4.529129 -20.153667,10.085644 -4.044032,4.626173 -8.457895,8.952086 -12.743023,13.386076 -3.424992,3.573507 -5.735402,8.247645 -4.978767,13.087665 1.396796,8.498811 -2.179321,16.805151 -1.65053,25.280311 0.246619,5.61379 5.306431,9.84284 10.870339,11.43224 12.395182,3.74903 25.687528,3.33607 38.571558,3.14349 9.25686,-0.55216 19.08598,-0.77449 27.43735,-4.92044 4.5273,-2.12496 6.46583,-7.03334 5.65944,-11.46888 -1.02191,-7.54596 -4.25896,-14.92616 -3.22326,-22.637687 -0.34098,-7.104821 -5.74996,-12.741738 -10.19852,-18.15801 -4.79978,-4.985993 -8.05441,-11.189021 -13.65396,-15.508445 -4.48439,-3.185371 -10.44478,-3.754436 -15.93696,-3.721964 z"
         sodipodi:nodetypes="cccccccccccccccc"
         inkscape:label="top" />
      <path
         id="path13668"
         style="display:inline;fill:#a98027;fill-opacity:1;stroke-width:0.279246"
         d="m 159.09517,127.06751 c 5.26661,12.3672 -22.95785,9.3427 -51.4557,9.3427 -28.497855,0 -56.272653,0.21141 -51.500255,-9.29026 3.444809,-6.85849 22.766224,-18.96484 51.264095,-18.96484 28.49786,0 48.68476,11.85103 51.69186,18.9124 z"
         sodipodi:nodetypes="sssss"
         inkscape:label="band" />
      <path
         id="path8008"
         style="fill:#218c5d;fill-opacity:1;stroke-width:1.35058"
         d="m 187.17417,121.04336 c 1e-5,18.36917 -36.39138,33.26033 -81.28242,33.26033 -44.891041,0 -81.282418,-14.89116 -81.282412,-33.26033 1.2e-5,-34.339543 63.723178,1.952 80.830982,1.952 16.38157,0 81.73384,-36.301097 81.73385,-1.952 z"
         sodipodi:nodetypes="sssss"
         inkscape:original-d="m 187.58551,117.58767 c 1e-5,20.05394 -36.39138,36.31088 -81.28242,36.31088 -44.891037,0 -81.282414,-16.25694 -81.282408,-36.31088 1.2e-5,-37.489078 63.723178,2.13103 80.830978,2.13103 16.38157,0 81.73384,-39.630538 81.73385,-2.13103 z"
         inkscape:label="bottom" />
      <path
         sodipodi:type="star"
         style="fill:#17e3dd;fill-opacity:1"
         id="path9779"
         inkscape:flatsided="false"
         sodipodi:sides="6"
         sodipodi:cx="367.77286"
         sodipodi:cy="276.25226"
         sodipodi:r1="63.998775"
         sodipodi:r2="37.759277"
         sodipodi:arg1="-1.5707963"
         sodipodi:arg2="-1.0471975"
         inkscape:rounded="0"
         inkscape:randomized="0"
         d="m 367.77286,212.25348 18.87964,31.29829 36.54492,0.7011 -17.66528,31.99939 17.66528,31.99939 -36.54493,0.7011 -18.87963,31.29828 -18.87964,-31.29828 -36.54493,-0.70111 17.66529,-31.99938 -17.66529,-31.99939 36.54493,-0.70111 z"
         transform="matrix(0.21235469,0,0,0.21235469,28.197376,29.968725)"
         inkscape:transform-center-y="-1.2977718"
         inkscape:label="star" />
    </g>
    <path
       id="path8056"
       style="fill:#cd8a3b;fill-opacity:1;stroke-width:0.41226"
       d="m 1997.7669,544.49586 c 7.7753,18.258 -34.3272,13.03593 -76.3995,13.03593 -42.0724,0 -83.787,2.08314 -76.7414,-11.94441 5.0859,-10.12545 34.3951,-22.15254 76.4675,-22.15254 42.0723,0 72.234,10.63602 76.6734,21.06102 z"
       sodipodi:nodetypes="sssss"
       inkscape:label="overlay"
       inkscape:export-filename="/home/path53.png"
       inkscape:export-xdpi="25.400002"
       inkscape:export-ydpi="25.400002" />
    <g
       id="g13386"
       clip-path="url(#clipPath13388)"
       inkscape:label="window"
       transform="matrix(1.4763341,0,0,1.4763342,1763.6684,329.25699)"
       inkscape:export-filename="/home/path53.png"
       inkscape:export-xdpi="25.400002"
       inkscape:export-ydpi="25.400002">
      <g
         inkscape:label="Clip"
         id="g13384">
        <path
           id="rect1915"
           style="display:inline;fill:#aa2e00;fill-opacity:1;stroke-width:0.321234"
           d="m 60.294657,157.10479 c 25.151953,-14.17743 69.146293,-16.6455 92.827023,0 1.96351,1.38017 4.33221,4.43885 4.33221,9.95256 0,7.78541 0.53972,17.06053 -2.8697,27.0196 -14.41133,38.68578 -81.194392,38.8339 -95.160008,1.1014 -3.439129,-11.54532 -3.461725,-19.9678 -3.461725,-28.121 0,-5.51372 2.241432,-8.77405 4.3322,-9.95256 z"
           sodipodi:nodetypes="sssccss"
           inkscape:label="glass" />
        <path
           id="path1935"
           style="display:inline;fill:#b63f0f;fill-opacity:1;stroke-width:0.321234"
           d="m 60.294657,157.10479 c 25.151953,-14.17743 69.146293,-16.6455 92.827023,0 1.96351,1.38017 4.33221,4.43885 4.33221,9.95256 0,7.78541 0.53972,17.06053 -2.8697,27.0196 -14.41133,38.68578 -81.194392,38.8339 -95.160008,1.1014 -3.439129,-11.54532 -3.461725,-19.9678 -3.461725,-28.121 0,-5.51372 2.241432,-8.77405 4.3322,-9.95256 z"
           sodipodi:nodetypes="sssccss"
           inkscape:label="shine"
           clip-path="url(#clipPath2156)" />
      </g>
    </g>
    <g
       id="g12303"
       transform="matrix(1.4762929,-0.01102853,0.01102853,1.476293,1759.0449,334.8428)"
       inkscape:label="mustache"
       inkscape:export-filename="/home/path53.png"
       inkscape:export-xdpi="25.400002"
       inkscape:export-ydpi="25.400002">
      <path
         id="path11703"
         style="fill:#17e3dd;fill-opacity:1;stroke:none;stroke-width:0.613482px;stroke-linecap:butt;stroke-linejoin:miter;stroke-opacity:1"
         d="m 7105.9668,2301.8262 c -5.1118,-0.031 -10.6045,1.6009 -15.8535,5.7929 -14.4152,11.5125 -19.1884,48.9355 7.2617,72.1856 38.9149,34.2068 118.6904,22.9449 148.1543,10.0898 6.4792,-2.8268 11.98,-7.2015 16.1855,-12.4629 4.3747,6.2855 10.5036,11.5339 17.9063,14.7637 29.4639,12.8551 109.2394,24.117 148.1543,-10.0898 26.4501,-23.2501 21.6769,-60.6731 7.2617,-72.1856 -15.997,-12.7758 -34.2644,-1.767 -37.0801,7.5957 29.2266,-12.8908 37.3923,30.6849 4.3711,34.2735 -33.0211,3.5885 -90.0184,-43.2602 -120.2519,-32.2618 -8.0029,2.9114 -14.094,6.9513 -18.5098,11.6602 -4.5044,-5.695 -11.2134,-10.5855 -20.4922,-13.9609 -30.2336,-10.9985 -87.2327,35.8502 -120.2539,32.2617 -33.0211,-3.5886 -24.8535,-47.1662 4.3731,-34.2754 -1.8918,-6.2906 -10.7596,-13.3234 -21.2266,-13.3867 z"
         transform="matrix(0.17921643,0,0,0.17921642,-1194.016,-225.99798)"
         inkscape:label="mustache" />
    </g>
  </g>
</svg>
