<?xml version="1.0" encoding="UTF-8" standalone="no"?>
<!-- Created with Inkscape (http://www.inkscape.org/) -->

<svg
   width="3840mm"
   height="1080mm"
   viewBox="0 0 3840 1080"
   version="1.1"
   id="svg5"
   sodipodi:docname="korangar_vapor.svg"
   inkscape:version="1.2.1 (9c6d41e410, 2022-07-14, custom)"
   inkscape:export-filename="korangar_vapor.png"
   inkscape:export-xdpi="25.400002"
   inkscape:export-ydpi="25.400002"
   xml:space="preserve"
   xmlns:inkscape="http://www.inkscape.org/namespaces/inkscape"
   xmlns:sodipodi="http://sodipodi.sourceforge.net/DTD/sodipodi-0.dtd"
   xmlns:xlink="http://www.w3.org/1999/xlink"
   xmlns="http://www.w3.org/2000/svg"
   xmlns:svg="http://www.w3.org/2000/svg"><sodipodi:namedview
     id="namedview7"
     pagecolor="#ffffff"
     bordercolor="#666666"
     borderopacity="1.0"
     inkscape:pageshadow="2"
     inkscape:pageopacity="0"
     inkscape:pagecheckerboard="0"
     inkscape:document-units="mm"
     showgrid="false"
     inkscape:zoom="0.125"
     inkscape:cx="6500"
     inkscape:cy="3132"
     inkscape:window-width="2759"
     inkscape:window-height="1052"
     inkscape:window-x="0"
     inkscape:window-y="0"
     inkscape:window-maximized="1"
     inkscape:current-layer="layer1"
     width="3840mm"
     inkscape:showpageshadow="2"
     inkscape:deskcolor="#d1d1d1" /><defs
     id="defs2"><linearGradient
       inkscape:collect="always"
       id="linearGradient18478"><stop
         style="stop-color:#ffbc37;stop-opacity:1;"
         offset="0"
         id="stop18474" /><stop
         style="stop-color:#d63279;stop-opacity:1;"
         offset="1"
         id="stop18476" /></linearGradient><linearGradient
       inkscape:collect="always"
       id="linearGradient2094"><stop
         style="stop-color:#ffbc37;stop-opacity:1;"
         offset="0"
         id="stop2090" /><stop
         style="stop-color:#d63279;stop-opacity:1;"
         offset="1"
         id="stop2092" /></linearGradient><inkscape:path-effect
       effect="gears"
       id="path-effect7849"
       is_visible="true"
       lpeversion="1"
       teeth="6"
       phi="20"
       min_radius="5" /><marker
       style="overflow:visible"
       id="Arrow1Lstart"
       refX="0"
       refY="0"
       orient="auto"
       inkscape:stockid="Arrow1Lstart"
       inkscape:isstock="true"><path
         transform="matrix(0.8,0,0,0.8,10,0)"
         style="fill:context-stroke;fill-rule:evenodd;stroke:context-stroke;stroke-width:1pt"
         d="M 0,0 5,-5 -12.5,0 5,5 Z"
         id="path1505" /></marker><filter
       id="mask-powermask-path-effect8725_inverse"
       inkscape:label="filtermask-powermask-path-effect8725"
       style="color-interpolation-filters:sRGB"
       height="100"
       width="100"
       x="-50"
       y="-50"><feColorMatrix
         id="mask-powermask-path-effect8725_primitive1"
         values="1"
         type="saturate"
         result="fbSourceGraphic" /><feColorMatrix
         id="mask-powermask-path-effect8725_primitive2"
         values="-1 0 0 0 1 0 -1 0 0 1 0 0 -1 0 1 0 0 0 1 0 "
         in="fbSourceGraphic" /></filter><filter
       id="mask-powermask-path-effect8802_inverse"
       inkscape:label="filtermask-powermask-path-effect8802"
       style="color-interpolation-filters:sRGB"
       height="1"
       width="1"
       x="0"
       y="0"><feColorMatrix
         id="mask-powermask-path-effect8802_primitive1"
         values="1"
         type="saturate"
         result="fbSourceGraphic" /><feColorMatrix
         id="mask-powermask-path-effect8802_primitive2"
         values="-1 0 0 0 1 0 -1 0 0 1 0 0 -1 0 1 0 0 0 1 0"
         in="fbSourceGraphic" /></filter><clipPath
       clipPathUnits="userSpaceOnUse"
       id="clipPath13388"><g
         inkscape:label="Clip"
         id="use13390"><path
           id="path1658"
           style="display:inline;fill:#aa2e00;fill-opacity:1;stroke-width:0.321234"
           d="m 60.294657,157.10479 c 25.151953,-14.17743 69.146293,-16.6455 92.827023,0 1.96351,1.38017 4.33221,4.43885 4.33221,9.95256 0,7.78541 0.53972,17.06053 -2.8697,27.0196 -14.41133,38.68578 -81.194392,38.8339 -95.160008,1.1014 -3.439129,-11.54532 -3.461725,-19.9678 -3.461725,-28.121 0,-5.51372 2.241432,-8.77405 4.3322,-9.95256 z"
           sodipodi:nodetypes="sssccss"
           inkscape:label="glass" /><path
           id="path1660"
           style="display:inline;fill:#b63f0f;fill-opacity:1;stroke-width:0.321234"
           d="m 60.294657,157.10479 c 25.151953,-14.17743 69.146293,-16.6455 92.827023,0 1.96351,1.38017 4.33221,4.43885 4.33221,9.95256 0,7.78541 0.53972,17.06053 -2.8697,27.0196 -14.41133,38.68578 -81.194392,38.8339 -95.160008,1.1014 -3.439129,-11.54532 -3.461725,-19.9678 -3.461725,-28.121 0,-5.51372 2.241432,-8.77405 4.3322,-9.95256 z"
           sodipodi:nodetypes="sssccss"
           inkscape:label="shine"
           clip-path="url(#clipPath2156)" /></g></clipPath><clipPath
       clipPathUnits="userSpaceOnUse"
       id="clipPath2156"><path
         id="path2158"
         style="color:#000000;fill:#00a387;stroke-width:1;-inkscape-stroke:none"
         d="M 108.3594,129.64848 C 67.992292,162.92005 58.738146,215.5096 58.738146,215.5096 l 14.754191,2.71099 c 0,0 9.231241,-48.00386 44.406123,-76.99586 z m 14.79689,9.50792 c -39.77135,36.78804 -47.929891,83.11127 -47.929891,83.11127 l 5.908551,1.04274 c 0,0 7.863497,-44.38587 46.09536,-79.74991 z"
         inkscape:label="shine" /></clipPath><filter
       style="color-interpolation-filters:sRGB"
       id="filter1695"
       inkscape:label="filter2"
       x="0"
       y="0"
       width="1"
       height="1"><feSpecularLighting
         id="feSpecularLighting3687"
         specularExponent="1"
         specularConstant="0.86947909980744542"
         surfaceScale="0.41478007761966396"
         lighting-color="rgb(224,27,36)"><fePointLight
           id="fePointLight3703" /></feSpecularLighting></filter><linearGradient
       inkscape:collect="always"
       xlink:href="#linearGradient2094"
       id="linearGradient2096"
       x1="1919.9991"
       y1="421.08301"
       x2="1919.9991"
       y2="645.49304"
       gradientUnits="userSpaceOnUse"
       gradientTransform="translate(0,-1.3293961e-4)" /><linearGradient
       inkscape:collect="always"
       xlink:href="#linearGradient2094"
       id="linearGradient1300"
       gradientUnits="userSpaceOnUse"
       x1="1920.0006"
       y1="638.93323"
       x2="1920.0006"
       y2="442.87729"
       gradientTransform="translate(0,-7.9176281e-5)" /><linearGradient
       inkscape:collect="always"
       xlink:href="#linearGradient18478"
       id="linearGradient18480"
       x1="1920.0006"
       y1="442.87723"
       x2="1920.0006"
       y2="638.93317"
       gradientUnits="userSpaceOnUse"
       gradientTransform="translate(0,-3.2939612e-5)" /><filter
       inkscape:collect="always"
       style="color-interpolation-filters:sRGB"
       id="filter25788"
       x="-0.075447529"
       y="-0.075296162"
       width="1.1508951"
       height="1.1505923"><feGaussianBlur
         inkscape:collect="always"
         stdDeviation="11.789492"
         id="feGaussianBlur25790" /></filter></defs><g
     inkscape:label="layer"
     id="layer1"
     inkscape:groupmode="layer"><rect
       style="display:inline;opacity:1;fill:#25373d;fill-opacity:1;stroke:none;stroke-width:10.601;stroke-linecap:round;stroke-linejoin:round"
       id="rect3011"
       width="3840"
       height="1080"
       x="0"
       y="0"
       inkscape:label="background" /><g
       id="logo"
       transform="matrix(4.2752148,0,0,4.2752148,1933.772,553.81587)"
       style="display:inline;stroke-width:0.0618878"
       inkscape:label="rust_logo"><g
         id="r"
         transform="translate(0.5,0.5)"
         style="stroke-width:0.0618878"><path
           style="color:#000000;fill:#000000;stroke-width:0.0618878;stroke-linejoin:round;-inkscape-stroke:none"
           d="M -9,-15 H 4 c 8,0 8,8 0,8 H -9 Z M -40,22 H 0 V 11 H -9 V 3 H 1 C 12,3 6,22 15,22 H 40 V 3 h -6 v 2 c 0,8 -9,7 -10,2 -1,-5 -5,-9 -6,-9 15,-8 6,-24 -6,-24 h -47 v 11 h 10 v 26 h -15 z"
           id="path13778" /><path
           style="color:#000000;fill:#000000;stroke-width:0.0618878;stroke-linejoin:round;-inkscape-stroke:none"
           d="m -35,-26.5 a 0.50005,0.50005 0 0 0 -0.5,0.5 v 11 a 0.50005,0.50005 0 0 0 0.5,0.5 h 9.5 v 25 H -40 a 0.50005,0.50005 0 0 0 -0.5,0.5 v 11 a 0.50005,0.50005 0 0 0 0.5,0.5 H 0 A 0.50005,0.50005 0 0 0 0.5,22 V 11 A 0.50005,0.50005 0 0 0 0,10.5 h -8.5 v -7 H 1 c 2.606058,0 4.0825955,1.0611147 5.140625,2.7363281 1.0580295,1.6752134 1.6208715,4.0004089 2.1191406,6.3671879 0.4982691,2.366778 0.9300496,4.768524 1.8535154,6.648437 C 11.036747,21.131866 12.574077,22.5 15,22.5 H 40 A 0.50005,0.50005 0 0 0 40.5,22 V 3 A 0.50005,0.50005 0 0 0 40,2.5 H 34 A 0.50005,0.50005 0 0 0 33.5,3 v 2 c 0,1.9062481 -0.528359,3.2086187 -1.292969,4.0566406 C 31.442421,9.9046625 30.423086,10.318501 29.349609,10.375 27.202657,10.487998 24.934919,9.1257675 24.490234,6.9023437 23.97012,4.301774 22.684259,1.9944201 21.396484,0.3203125 20.752597,-0.51674131 20.108253,-1.19558 19.542969,-1.6777344 19.33681,-1.8535759 19.152507,-1.9727156 18.966797,-2.0957031 c 3.316053,-1.9585278 5.534161,-4.3075286 6.574219,-6.8398438 1.128618,-2.7479401 1.028712,-5.6376251 0.05273,-8.2402341 C 23.641793,-22.380999 18.222216,-26.5 12,-26.5 Z m 0.5,1 H 12 c 5.777772,0 10.85821,3.881009 12.65625,8.675781 0.89902,2.397386 0.986614,5.007712 -0.04102,7.5097659 -1.027629,2.5020541 -3.178994,4.9153855 -6.849609,6.8730468 A 0.50005,0.50005 0 0 0 18,-1.5 c -0.04167,0 0.08504,0.018059 0.253906,0.1152344 0.168863,0.097176 0.392018,0.2567026 0.640625,0.46874997 0.497215,0.42409475 1.102873,1.05775856 1.708985,1.84570313 1.212222,1.5758891 2.426365,3.7685435 2.90625,6.1679687 C 24.06508,9.8742275 26.797348,11.512002 29.400391,11.375 30.701912,11.3065 31.99508,10.782836 32.949219,9.7246094 33.903357,8.6663832 34.5,7.0937479 34.5,5 V 3.5 h 5 v 18 H 15 c -2.074072,0 -3.161749,-1.00687 -3.988281,-2.689453 C 10.185187,17.127964 9.7419643,14.779701 9.2402344,12.396484 8.7385045,10.013267 8.1763432,7.5884549 6.984375,5.7011719 5.7924068,3.8138889 3.8939365,2.5 1,2.5 H -9 A 0.50005,0.50005 0 0 0 -9.5,3 v 8 a 0.50005,0.50005 0 0 0 0.5,0.5 h 8.5 v 10 h -39 v -10 H -25 a 0.50005,0.50005 0 0 0 0.5,-0.5 v -26 a 0.50005,0.50005 0 0 0 -0.5,-0.5 h -9.5 z m 25.5,10 a 0.50005,0.50005 0 0 0 -0.5,0.5 v 8 A 0.50005,0.50005 0 0 0 -9,-6.5 H 4 c 2.0833313,0 3.6941157,-0.5196102 4.8007813,-1.3496094 C 9.9074468,-8.6796085 10.5,-9.8333345 10.5,-11 10.5,-12.166666 9.9074468,-13.320391 8.8007813,-14.150391 7.6941157,-14.98039 6.0833313,-15.5 4,-15.5 Z m 0.5,1 H 4 c 1.9166647,0 3.3058863,0.480391 4.1992188,1.150391 C 9.0925512,-12.67961 9.5,-11.833333 9.5,-11 9.5,-10.166667 9.0925512,-9.32039 8.1992188,-8.6503906 7.3058863,-7.9803913 5.9166648,-7.5 4,-7.5 H -8.5 Z"
           id="path13780" /></g><g
         id="gear"
         mask="url(#holes)"
         style="stroke-width:0.0618878"><path
           style="color:#000000;fill:#000000;stroke-width:0.0618878;-inkscape-stroke:none"
           d="m 0,-47.5 c -26.180199,0 -47.5,21.319801 -47.5,47.5 0,26.180199 21.319801,47.5 47.5,47.5 C 26.180199,47.5 47.5,26.180199 47.5,0 47.5,-26.180199 26.180199,-47.5 0,-47.5 Z m 0,9 c 21.316242,0 38.5,17.183758 38.5,38.5 0,21.316242 -17.183758,38.5 -38.5,38.5 -21.316242,0 -38.5,-17.183758 -38.5,-38.5 0,-21.316242 17.183758,-38.5 38.5,-38.5 z"
           id="circle13419" /><g
           id="cogs"
           style="stroke-width:0.0618878"><g
             id="cog"
             style="stroke-width:0.0618878"><path
               style="color:#000000;fill:#000000;stroke-width:0.185664;stroke-linejoin:round;-inkscape-stroke:none"
               d="M 46,-3 V 3 L 51,0 Z"
               id="path13788" /><path
               style="color:#000000;fill:#000000;stroke-width:0.0618878;stroke-linejoin:round;-inkscape-stroke:none"
               d="M 45.261719,-4.3046875 A 1.50015,1.50015 0 0 0 44.5,-3 v 6 a 1.50015,1.50015 0 0 0 2.271484,1.2871094 l 5,-3 a 1.50015,1.50015 0 0 0 0,-2.5742188 l -5,-3 a 1.50015,1.50015 0 0 0 -1.509765,-0.017578 z M 47.5,-0.34960938 48.083984,0 47.5,0.34960938 Z"
               id="path13790" /></g><g
             id="use13422"
             transform="rotate(11.25)"
             style="stroke-width:0.0618878"><path
               style="color:#000000;fill:#000000;stroke-width:0.185664;stroke-linejoin:round;-inkscape-stroke:none"
               d="M 51,0 46,-3 V 3 Z"
               id="path13794" /><path
               style="color:#000000;fill:#000000;stroke-width:0.0618878;stroke-linejoin:round;-inkscape-stroke:none"
               d="M 45.261719,-4.3046875 A 1.50015,1.50015 0 0 0 44.5,-3 v 6 a 1.50015,1.50015 0 0 0 2.271484,1.2871094 l 5,-3 a 1.50015,1.50015 0 0 0 0,-2.5742188 l -5,-3 a 1.50015,1.50015 0 0 0 -1.509765,-0.017578 z M 47.5,-0.34960938 48.083984,0 47.5,0.34960938 Z"
               id="path13796" /></g><g
             id="use13424"
             transform="rotate(22.5)"
             style="stroke-width:0.0618878"><path
               style="color:#000000;fill:#000000;stroke-width:0.185664;stroke-linejoin:round;-inkscape-stroke:none"
               d="M 51,0 46,-3 V 3 Z"
               id="path13800" /><path
               style="color:#000000;fill:#000000;stroke-width:0.0618878;stroke-linejoin:round;-inkscape-stroke:none"
               d="M 45.261719,-4.3046875 A 1.50015,1.50015 0 0 0 44.5,-3 v 6 a 1.50015,1.50015 0 0 0 2.271484,1.2871094 l 5,-3 a 1.50015,1.50015 0 0 0 0,-2.5742188 l -5,-3 a 1.50015,1.50015 0 0 0 -1.509765,-0.017578 z M 47.5,-0.34960938 48.083984,0 47.5,0.34960938 Z"
               id="path13802" /></g><g
             id="use13426"
             transform="rotate(33.75)"
             style="stroke-width:0.0618878"><path
               style="color:#000000;fill:#000000;stroke-width:0.185664;stroke-linejoin:round;-inkscape-stroke:none"
               d="M 51,0 46,-3 V 3 Z"
               id="path13806" /><path
               style="color:#000000;fill:#000000;stroke-width:0.0618878;stroke-linejoin:round;-inkscape-stroke:none"
               d="M 45.261719,-4.3046875 A 1.50015,1.50015 0 0 0 44.5,-3 v 6 a 1.50015,1.50015 0 0 0 2.271484,1.2871094 l 5,-3 a 1.50015,1.50015 0 0 0 0,-2.5742188 l -5,-3 a 1.50015,1.50015 0 0 0 -1.509765,-0.017578 z M 47.5,-0.34960938 48.083984,0 47.5,0.34960938 Z"
               id="path13808" /></g><g
             id="use13428"
             transform="rotate(45)"
             style="stroke-width:0.0618878"><path
               style="color:#000000;fill:#000000;stroke-width:0.185664;stroke-linejoin:round;-inkscape-stroke:none"
               d="M 51,0 46,-3 V 3 Z"
               id="path13812" /><path
               style="color:#000000;fill:#000000;stroke-width:0.0618878;stroke-linejoin:round;-inkscape-stroke:none"
               d="M 45.261719,-4.3046875 A 1.50015,1.50015 0 0 0 44.5,-3 v 6 a 1.50015,1.50015 0 0 0 2.271484,1.2871094 l 5,-3 a 1.50015,1.50015 0 0 0 0,-2.5742188 l -5,-3 a 1.50015,1.50015 0 0 0 -1.509765,-0.017578 z M 47.5,-0.34960938 48.083984,0 47.5,0.34960938 Z"
               id="path13814" /></g><g
             id="use13430"
             transform="rotate(56.25)"
             style="stroke-width:0.0618878"><path
               style="color:#000000;fill:#000000;stroke-width:0.185664;stroke-linejoin:round;-inkscape-stroke:none"
               d="M 51,0 46,-3 V 3 Z"
               id="path13818" /><path
               style="color:#000000;fill:#000000;stroke-width:0.0618878;stroke-linejoin:round;-inkscape-stroke:none"
               d="M 45.261719,-4.3046875 A 1.50015,1.50015 0 0 0 44.5,-3 v 6 a 1.50015,1.50015 0 0 0 2.271484,1.2871094 l 5,-3 a 1.50015,1.50015 0 0 0 0,-2.5742188 l -5,-3 a 1.50015,1.50015 0 0 0 -1.509765,-0.017578 z M 47.5,-0.34960938 48.083984,0 47.5,0.34960938 Z"
               id="path13820" /></g><g
             id="use13432"
             transform="rotate(67.5)"
             style="stroke-width:0.0618878"><path
               style="color:#000000;fill:#000000;stroke-width:0.185664;stroke-linejoin:round;-inkscape-stroke:none"
               d="M 51,0 46,-3 V 3 Z"
               id="path13824" /><path
               style="color:#000000;fill:#000000;stroke-width:0.0618878;stroke-linejoin:round;-inkscape-stroke:none"
               d="M 45.261719,-4.3046875 A 1.50015,1.50015 0 0 0 44.5,-3 v 6 a 1.50015,1.50015 0 0 0 2.271484,1.2871094 l 5,-3 a 1.50015,1.50015 0 0 0 0,-2.5742188 l -5,-3 a 1.50015,1.50015 0 0 0 -1.509765,-0.017578 z M 47.5,-0.34960938 48.083984,0 47.5,0.34960938 Z"
               id="path13826" /></g><g
             id="use13434"
             transform="rotate(78.75)"
             style="stroke-width:0.0618878"><path
               style="color:#000000;fill:#000000;stroke-width:0.185664;stroke-linejoin:round;-inkscape-stroke:none"
               d="M 51,0 46,-3 V 3 Z"
               id="path13830" /><path
               style="color:#000000;fill:#000000;stroke-width:0.0618878;stroke-linejoin:round;-inkscape-stroke:none"
               d="M 45.261719,-4.3046875 A 1.50015,1.50015 0 0 0 44.5,-3 v 6 a 1.50015,1.50015 0 0 0 2.271484,1.2871094 l 5,-3 a 1.50015,1.50015 0 0 0 0,-2.5742188 l -5,-3 a 1.50015,1.50015 0 0 0 -1.509765,-0.017578 z M 47.5,-0.34960938 48.083984,0 47.5,0.34960938 Z"
               id="path13832" /></g><g
             id="use13436"
             transform="rotate(90)"
             style="stroke-width:0.0618878"><path
               style="color:#000000;fill:#000000;stroke-width:0.185664;stroke-linejoin:round;-inkscape-stroke:none"
               d="M 51,0 46,-3 V 3 Z"
               id="path13836" /><path
               style="color:#000000;fill:#000000;stroke-width:0.0618878;stroke-linejoin:round;-inkscape-stroke:none"
               d="M 45.261719,-4.3046875 A 1.50015,1.50015 0 0 0 44.5,-3 v 6 a 1.50015,1.50015 0 0 0 2.271484,1.2871094 l 5,-3 a 1.50015,1.50015 0 0 0 0,-2.5742188 l -5,-3 a 1.50015,1.50015 0 0 0 -1.509765,-0.017578 z M 47.5,-0.34960938 48.083984,0 47.5,0.34960938 Z"
               id="path13838" /></g><g
             id="use13438"
             transform="rotate(101.25)"
             style="stroke-width:0.0618878"><path
               style="color:#000000;fill:#000000;stroke-width:0.185664;stroke-linejoin:round;-inkscape-stroke:none"
               d="M 51,0 46,-3 V 3 Z"
               id="path13842" /><path
               style="color:#000000;fill:#000000;stroke-width:0.0618878;stroke-linejoin:round;-inkscape-stroke:none"
               d="M 45.261719,-4.3046875 A 1.50015,1.50015 0 0 0 44.5,-3 v 6 a 1.50015,1.50015 0 0 0 2.271484,1.2871094 l 5,-3 a 1.50015,1.50015 0 0 0 0,-2.5742188 l -5,-3 a 1.50015,1.50015 0 0 0 -1.509765,-0.017578 z M 47.5,-0.34960938 48.083984,0 47.5,0.34960938 Z"
               id="path13844" /></g><g
             id="use13440"
             transform="rotate(112.5)"
             style="stroke-width:0.0618878"><path
               style="color:#000000;fill:#000000;stroke-width:0.185664;stroke-linejoin:round;-inkscape-stroke:none"
               d="M 51,0 46,-3 V 3 Z"
               id="path13848" /><path
               style="color:#000000;fill:#000000;stroke-width:0.0618878;stroke-linejoin:round;-inkscape-stroke:none"
               d="M 45.261719,-4.3046875 A 1.50015,1.50015 0 0 0 44.5,-3 v 6 a 1.50015,1.50015 0 0 0 2.271484,1.2871094 l 5,-3 a 1.50015,1.50015 0 0 0 0,-2.5742188 l -5,-3 a 1.50015,1.50015 0 0 0 -1.509765,-0.017578 z M 47.5,-0.34960938 48.083984,0 47.5,0.34960938 Z"
               id="path13850" /></g><g
             id="use13442"
             transform="rotate(123.75)"
             style="stroke-width:0.0618878"><path
               style="color:#000000;fill:#000000;stroke-width:0.185664;stroke-linejoin:round;-inkscape-stroke:none"
               d="M 51,0 46,-3 V 3 Z"
               id="path13854" /><path
               style="color:#000000;fill:#000000;stroke-width:0.0618878;stroke-linejoin:round;-inkscape-stroke:none"
               d="M 45.261719,-4.3046875 A 1.50015,1.50015 0 0 0 44.5,-3 v 6 a 1.50015,1.50015 0 0 0 2.271484,1.2871094 l 5,-3 a 1.50015,1.50015 0 0 0 0,-2.5742188 l -5,-3 a 1.50015,1.50015 0 0 0 -1.509765,-0.017578 z M 47.5,-0.34960938 48.083984,0 47.5,0.34960938 Z"
               id="path13856" /></g><g
             id="use13444"
             transform="rotate(135)"
             style="stroke-width:0.0618878"><path
               style="color:#000000;fill:#000000;stroke-width:0.185664;stroke-linejoin:round;-inkscape-stroke:none"
               d="M 51,0 46,-3 V 3 Z"
               id="path13860" /><path
               style="color:#000000;fill:#000000;stroke-width:0.0618878;stroke-linejoin:round;-inkscape-stroke:none"
               d="M 45.261719,-4.3046875 A 1.50015,1.50015 0 0 0 44.5,-3 v 6 a 1.50015,1.50015 0 0 0 2.271484,1.2871094 l 5,-3 a 1.50015,1.50015 0 0 0 0,-2.5742188 l -5,-3 a 1.50015,1.50015 0 0 0 -1.509765,-0.017578 z M 47.5,-0.34960938 48.083984,0 47.5,0.34960938 Z"
               id="path13862" /></g><g
             id="use13446"
             transform="rotate(146.25)"
             style="stroke-width:0.0618878"><path
               style="color:#000000;fill:#000000;stroke-width:0.185664;stroke-linejoin:round;-inkscape-stroke:none"
               d="M 51,0 46,-3 V 3 Z"
               id="path13866" /><path
               style="color:#000000;fill:#000000;stroke-width:0.0618878;stroke-linejoin:round;-inkscape-stroke:none"
               d="M 45.261719,-4.3046875 A 1.50015,1.50015 0 0 0 44.5,-3 v 6 a 1.50015,1.50015 0 0 0 2.271484,1.2871094 l 5,-3 a 1.50015,1.50015 0 0 0 0,-2.5742188 l -5,-3 a 1.50015,1.50015 0 0 0 -1.509765,-0.017578 z M 47.5,-0.34960938 48.083984,0 47.5,0.34960938 Z"
               id="path13868" /></g><g
             id="use13448"
             transform="rotate(157.5)"
             style="stroke-width:0.0618878"><path
               style="color:#000000;fill:#000000;stroke-width:0.185664;stroke-linejoin:round;-inkscape-stroke:none"
               d="M 51,0 46,-3 V 3 Z"
               id="path13872" /><path
               style="color:#000000;fill:#000000;stroke-width:0.0618878;stroke-linejoin:round;-inkscape-stroke:none"
               d="M 45.261719,-4.3046875 A 1.50015,1.50015 0 0 0 44.5,-3 v 6 a 1.50015,1.50015 0 0 0 2.271484,1.2871094 l 5,-3 a 1.50015,1.50015 0 0 0 0,-2.5742188 l -5,-3 a 1.50015,1.50015 0 0 0 -1.509765,-0.017578 z M 47.5,-0.34960938 48.083984,0 47.5,0.34960938 Z"
               id="path13874" /></g><g
             id="use13450"
             transform="rotate(168.75)"
             style="stroke-width:0.0618878"><path
               style="color:#000000;fill:#000000;stroke-width:0.185664;stroke-linejoin:round;-inkscape-stroke:none"
               d="M 51,0 46,-3 V 3 Z"
               id="path13878" /><path
               style="color:#000000;fill:#000000;stroke-width:0.0618878;stroke-linejoin:round;-inkscape-stroke:none"
               d="M 45.261719,-4.3046875 A 1.50015,1.50015 0 0 0 44.5,-3 v 6 a 1.50015,1.50015 0 0 0 2.271484,1.2871094 l 5,-3 a 1.50015,1.50015 0 0 0 0,-2.5742188 l -5,-3 a 1.50015,1.50015 0 0 0 -1.509765,-0.017578 z M 47.5,-0.34960938 48.083984,0 47.5,0.34960938 Z"
               id="path13880" /></g><g
             id="use13452"
             transform="scale(-1)"
             style="stroke-width:0.0618878"><path
               style="color:#000000;fill:#000000;stroke-width:0.185664;stroke-linejoin:round;-inkscape-stroke:none"
               d="M 51,0 46,-3 V 3 Z"
               id="path13884" /><path
               style="color:#000000;fill:#000000;stroke-width:0.0618878;stroke-linejoin:round;-inkscape-stroke:none"
               d="M 45.261719,-4.3046875 A 1.50015,1.50015 0 0 0 44.5,-3 v 6 a 1.50015,1.50015 0 0 0 2.271484,1.2871094 l 5,-3 a 1.50015,1.50015 0 0 0 0,-2.5742188 l -5,-3 a 1.50015,1.50015 0 0 0 -1.509765,-0.017578 z M 47.5,-0.34960938 48.083984,0 47.5,0.34960938 Z"
               id="path13886" /></g><g
             id="use13454"
             transform="rotate(-168.75)"
             style="stroke-width:0.0618878"><path
               style="color:#000000;fill:#000000;stroke-width:0.185664;stroke-linejoin:round;-inkscape-stroke:none"
               d="M 51,0 46,-3 V 3 Z"
               id="path13890" /><path
               style="color:#000000;fill:#000000;stroke-width:0.0618878;stroke-linejoin:round;-inkscape-stroke:none"
               d="M 45.261719,-4.3046875 A 1.50015,1.50015 0 0 0 44.5,-3 v 6 a 1.50015,1.50015 0 0 0 2.271484,1.2871094 l 5,-3 a 1.50015,1.50015 0 0 0 0,-2.5742188 l -5,-3 a 1.50015,1.50015 0 0 0 -1.509765,-0.017578 z M 47.5,-0.34960938 48.083984,0 47.5,0.34960938 Z"
               id="path13892" /></g><g
             id="use13456"
             transform="rotate(-157.5)"
             style="stroke-width:0.0618878"><path
               style="color:#000000;fill:#000000;stroke-width:0.185664;stroke-linejoin:round;-inkscape-stroke:none"
               d="M 51,0 46,-3 V 3 Z"
               id="path13896" /><path
               style="color:#000000;fill:#000000;stroke-width:0.0618878;stroke-linejoin:round;-inkscape-stroke:none"
               d="M 45.261719,-4.3046875 A 1.50015,1.50015 0 0 0 44.5,-3 v 6 a 1.50015,1.50015 0 0 0 2.271484,1.2871094 l 5,-3 a 1.50015,1.50015 0 0 0 0,-2.5742188 l -5,-3 a 1.50015,1.50015 0 0 0 -1.509765,-0.017578 z M 47.5,-0.34960938 48.083984,0 47.5,0.34960938 Z"
               id="path13898" /></g><g
             id="use13458"
             transform="rotate(-146.25)"
             style="stroke-width:0.0618878"><path
               style="color:#000000;fill:#000000;stroke-width:0.185664;stroke-linejoin:round;-inkscape-stroke:none"
               d="M 51,0 46,-3 V 3 Z"
               id="path13902" /><path
               style="color:#000000;fill:#000000;stroke-width:0.0618878;stroke-linejoin:round;-inkscape-stroke:none"
               d="M 45.261719,-4.3046875 A 1.50015,1.50015 0 0 0 44.5,-3 v 6 a 1.50015,1.50015 0 0 0 2.271484,1.2871094 l 5,-3 a 1.50015,1.50015 0 0 0 0,-2.5742188 l -5,-3 a 1.50015,1.50015 0 0 0 -1.509765,-0.017578 z M 47.5,-0.34960938 48.083984,0 47.5,0.34960938 Z"
               id="path13904" /></g><g
             id="use13460"
             transform="rotate(-135)"
             style="stroke-width:0.0618878"><path
               style="color:#000000;fill:#000000;stroke-width:0.185664;stroke-linejoin:round;-inkscape-stroke:none"
               d="M 51,0 46,-3 V 3 Z"
               id="path13908" /><path
               style="color:#000000;fill:#000000;stroke-width:0.0618878;stroke-linejoin:round;-inkscape-stroke:none"
               d="M 45.261719,-4.3046875 A 1.50015,1.50015 0 0 0 44.5,-3 v 6 a 1.50015,1.50015 0 0 0 2.271484,1.2871094 l 5,-3 a 1.50015,1.50015 0 0 0 0,-2.5742188 l -5,-3 a 1.50015,1.50015 0 0 0 -1.509765,-0.017578 z M 47.5,-0.34960938 48.083984,0 47.5,0.34960938 Z"
               id="path13910" /></g><g
             id="use13462"
             transform="rotate(-123.75)"
             style="stroke-width:0.0618878"><path
               style="color:#000000;fill:#000000;stroke-width:0.185664;stroke-linejoin:round;-inkscape-stroke:none"
               d="M 51,0 46,-3 V 3 Z"
               id="path13914" /><path
               style="color:#000000;fill:#000000;stroke-width:0.0618878;stroke-linejoin:round;-inkscape-stroke:none"
               d="M 45.261719,-4.3046875 A 1.50015,1.50015 0 0 0 44.5,-3 v 6 a 1.50015,1.50015 0 0 0 2.271484,1.2871094 l 5,-3 a 1.50015,1.50015 0 0 0 0,-2.5742188 l -5,-3 a 1.50015,1.50015 0 0 0 -1.509765,-0.017578 z M 47.5,-0.34960938 48.083984,0 47.5,0.34960938 Z"
               id="path13916" /></g><g
             id="use13464"
             transform="rotate(-112.5)"
             style="stroke-width:0.0618878"><path
               style="color:#000000;fill:#000000;stroke-width:0.185664;stroke-linejoin:round;-inkscape-stroke:none"
               d="M 51,0 46,-3 V 3 Z"
               id="path13920" /><path
               style="color:#000000;fill:#000000;stroke-width:0.0618878;stroke-linejoin:round;-inkscape-stroke:none"
               d="M 45.261719,-4.3046875 A 1.50015,1.50015 0 0 0 44.5,-3 v 6 a 1.50015,1.50015 0 0 0 2.271484,1.2871094 l 5,-3 a 1.50015,1.50015 0 0 0 0,-2.5742188 l -5,-3 a 1.50015,1.50015 0 0 0 -1.509765,-0.017578 z M 47.5,-0.34960938 48.083984,0 47.5,0.34960938 Z"
               id="path13922" /></g><g
             id="use13466"
             transform="rotate(-101.25)"
             style="stroke-width:0.0618878"><path
               style="color:#000000;fill:#000000;stroke-width:0.185664;stroke-linejoin:round;-inkscape-stroke:none"
               d="M 51,0 46,-3 V 3 Z"
               id="path13926" /><path
               style="color:#000000;fill:#000000;stroke-width:0.0618878;stroke-linejoin:round;-inkscape-stroke:none"
               d="M 45.261719,-4.3046875 A 1.50015,1.50015 0 0 0 44.5,-3 v 6 a 1.50015,1.50015 0 0 0 2.271484,1.2871094 l 5,-3 a 1.50015,1.50015 0 0 0 0,-2.5742188 l -5,-3 a 1.50015,1.50015 0 0 0 -1.509765,-0.017578 z M 47.5,-0.34960938 48.083984,0 47.5,0.34960938 Z"
               id="path13928" /></g><g
             id="use13468"
             transform="rotate(-90)"
             style="stroke-width:0.0618878"><path
               style="color:#000000;fill:#000000;stroke-width:0.185664;stroke-linejoin:round;-inkscape-stroke:none"
               d="M 51,0 46,-3 V 3 Z"
               id="path13932" /><path
               style="color:#000000;fill:#000000;stroke-width:0.0618878;stroke-linejoin:round;-inkscape-stroke:none"
               d="M 45.261719,-4.3046875 A 1.50015,1.50015 0 0 0 44.5,-3 v 6 a 1.50015,1.50015 0 0 0 2.271484,1.2871094 l 5,-3 a 1.50015,1.50015 0 0 0 0,-2.5742188 l -5,-3 a 1.50015,1.50015 0 0 0 -1.509765,-0.017578 z M 47.5,-0.34960938 48.083984,0 47.5,0.34960938 Z"
               id="path13934" /></g><g
             id="use13470"
             transform="rotate(-78.75)"
             style="stroke-width:0.0618878"><path
               style="color:#000000;fill:#000000;stroke-width:0.185664;stroke-linejoin:round;-inkscape-stroke:none"
               d="M 51,0 46,-3 V 3 Z"
               id="path13938" /><path
               style="color:#000000;fill:#000000;stroke-width:0.0618878;stroke-linejoin:round;-inkscape-stroke:none"
               d="M 45.261719,-4.3046875 A 1.50015,1.50015 0 0 0 44.5,-3 v 6 a 1.50015,1.50015 0 0 0 2.271484,1.2871094 l 5,-3 a 1.50015,1.50015 0 0 0 0,-2.5742188 l -5,-3 a 1.50015,1.50015 0 0 0 -1.509765,-0.017578 z M 47.5,-0.34960938 48.083984,0 47.5,0.34960938 Z"
               id="path13940" /></g><g
             id="use13472"
             transform="rotate(-67.5)"
             style="stroke-width:0.0618878"><path
               style="color:#000000;fill:#000000;stroke-width:0.185664;stroke-linejoin:round;-inkscape-stroke:none"
               d="M 51,0 46,-3 V 3 Z"
               id="path13944" /><path
               style="color:#000000;fill:#000000;stroke-width:0.0618878;stroke-linejoin:round;-inkscape-stroke:none"
               d="M 45.261719,-4.3046875 A 1.50015,1.50015 0 0 0 44.5,-3 v 6 a 1.50015,1.50015 0 0 0 2.271484,1.2871094 l 5,-3 a 1.50015,1.50015 0 0 0 0,-2.5742188 l -5,-3 a 1.50015,1.50015 0 0 0 -1.509765,-0.017578 z M 47.5,-0.34960938 48.083984,0 47.5,0.34960938 Z"
               id="path13946" /></g><g
             id="use13474"
             transform="rotate(-56.25)"
             style="stroke-width:0.0618878"><path
               style="color:#000000;fill:#000000;stroke-width:0.185664;stroke-linejoin:round;-inkscape-stroke:none"
               d="M 51,0 46,-3 V 3 Z"
               id="path13950" /><path
               style="color:#000000;fill:#000000;stroke-width:0.0618878;stroke-linejoin:round;-inkscape-stroke:none"
               d="M 45.261719,-4.3046875 A 1.50015,1.50015 0 0 0 44.5,-3 v 6 a 1.50015,1.50015 0 0 0 2.271484,1.2871094 l 5,-3 a 1.50015,1.50015 0 0 0 0,-2.5742188 l -5,-3 a 1.50015,1.50015 0 0 0 -1.509765,-0.017578 z M 47.5,-0.34960938 48.083984,0 47.5,0.34960938 Z"
               id="path13952" /></g><g
             id="use13476"
             transform="rotate(-45)"
             style="stroke-width:0.0618878"><path
               style="color:#000000;fill:#000000;stroke-width:0.185664;stroke-linejoin:round;-inkscape-stroke:none"
               d="M 51,0 46,-3 V 3 Z"
               id="path13956" /><path
               style="color:#000000;fill:#000000;stroke-width:0.0618878;stroke-linejoin:round;-inkscape-stroke:none"
               d="M 45.261719,-4.3046875 A 1.50015,1.50015 0 0 0 44.5,-3 v 6 a 1.50015,1.50015 0 0 0 2.271484,1.2871094 l 5,-3 a 1.50015,1.50015 0 0 0 0,-2.5742188 l -5,-3 a 1.50015,1.50015 0 0 0 -1.509765,-0.017578 z M 47.5,-0.34960938 48.083984,0 47.5,0.34960938 Z"
               id="path13958" /></g><g
             id="use13478"
             transform="rotate(-33.75)"
             style="stroke-width:0.0618878"><path
               style="color:#000000;fill:#000000;stroke-width:0.185664;stroke-linejoin:round;-inkscape-stroke:none"
               d="M 51,0 46,-3 V 3 Z"
               id="path13962" /><path
               style="color:#000000;fill:#000000;stroke-width:0.0618878;stroke-linejoin:round;-inkscape-stroke:none"
               d="M 45.261719,-4.3046875 A 1.50015,1.50015 0 0 0 44.5,-3 v 6 a 1.50015,1.50015 0 0 0 2.271484,1.2871094 l 5,-3 a 1.50015,1.50015 0 0 0 0,-2.5742188 l -5,-3 a 1.50015,1.50015 0 0 0 -1.509765,-0.017578 z M 47.5,-0.34960938 48.083984,0 47.5,0.34960938 Z"
               id="path13964" /></g><g
             id="use13480"
             transform="rotate(-22.5)"
             style="stroke-width:0.0618878"><path
               style="color:#000000;fill:#000000;stroke-width:0.185664;stroke-linejoin:round;-inkscape-stroke:none"
               d="M 51,0 46,-3 V 3 Z"
               id="path13968" /><path
               style="color:#000000;fill:#000000;stroke-width:0.0618878;stroke-linejoin:round;-inkscape-stroke:none"
               d="M 45.261719,-4.3046875 A 1.50015,1.50015 0 0 0 44.5,-3 v 6 a 1.50015,1.50015 0 0 0 2.271484,1.2871094 l 5,-3 a 1.50015,1.50015 0 0 0 0,-2.5742188 l -5,-3 a 1.50015,1.50015 0 0 0 -1.509765,-0.017578 z M 47.5,-0.34960938 48.083984,0 47.5,0.34960938 Z"
               id="path13970" /></g><g
             id="use13482"
             transform="rotate(-11.25)"
             style="stroke-width:0.0618878"><path
               style="color:#000000;fill:#000000;stroke-width:0.185664;stroke-linejoin:round;-inkscape-stroke:none"
               d="M 51,0 46,-3 V 3 Z"
               id="path13974" /><path
               style="color:#000000;fill:#000000;stroke-width:0.0618878;stroke-linejoin:round;-inkscape-stroke:none"
               d="M 45.261719,-4.3046875 A 1.50015,1.50015 0 0 0 44.5,-3 v 6 a 1.50015,1.50015 0 0 0 2.271484,1.2871094 l 5,-3 a 1.50015,1.50015 0 0 0 0,-2.5742188 l -5,-3 a 1.50015,1.50015 0 0 0 -1.509765,-0.017578 z M 47.5,-0.34960938 48.083984,0 47.5,0.34960938 Z"
               id="path13976" /></g></g><g
           id="mounts"
           style="stroke-width:0.0618878"><g
             id="mount"
             style="stroke-width:0.0618878"><path
               style="color:#000000;fill:#000000;stroke-width:0.371325;stroke-linejoin:round;-inkscape-stroke:none"
               d="M 7,-42 H -7 l 7,7 z"
               id="path13980" /><path
               style="color:#000000;fill:#000000;stroke-width:0.0618878;stroke-linejoin:round;-inkscape-stroke:none"
               d="m -7,-45 a 3.0003,3.0003 0 0 0 -2.1210938,5.121094 l 7,7 a 3.0003,3.0003 0 0 0 4.2421876,0 l 7,-7 A 3.0003,3.0003 0 0 0 7,-45 Z"
               id="path13982" /></g><g
             id="use13486"
             transform="rotate(72)"
             style="stroke-width:0.0618878"><path
               style="color:#000000;fill:#000000;stroke-width:0.371325;stroke-linejoin:round;-inkscape-stroke:none"
               d="m 0,-35 7,-7 H -7 Z"
               id="path13986" /><path
               style="color:#000000;fill:#000000;stroke-width:0.0618878;stroke-linejoin:round;-inkscape-stroke:none"
               d="m -7,-45 a 3.0003,3.0003 0 0 0 -2.1210938,5.121094 l 7,7 a 3.0003,3.0003 0 0 0 4.2421876,0 l 7,-7 A 3.0003,3.0003 0 0 0 7,-45 Z"
               id="path13988" /></g><g
             id="use13488"
             transform="rotate(144)"
             style="stroke-width:0.0618878"><path
               style="color:#000000;fill:#000000;stroke-width:0.371325;stroke-linejoin:round;-inkscape-stroke:none"
               d="m 0,-35 7,-7 H -7 Z"
               id="path13992" /><path
               style="color:#000000;fill:#000000;stroke-width:0.0618878;stroke-linejoin:round;-inkscape-stroke:none"
               d="m -7,-45 a 3.0003,3.0003 0 0 0 -2.1210938,5.121094 l 7,7 a 3.0003,3.0003 0 0 0 4.2421876,0 l 7,-7 A 3.0003,3.0003 0 0 0 7,-45 Z"
               id="path13994" /></g><g
             id="use13490"
             transform="rotate(-144)"
             style="stroke-width:0.0618878"><path
               style="color:#000000;fill:#000000;stroke-width:0.371325;stroke-linejoin:round;-inkscape-stroke:none"
               d="m 0,-35 7,-7 H -7 Z"
               id="path13998" /><path
               style="color:#000000;fill:#000000;stroke-width:0.0618878;stroke-linejoin:round;-inkscape-stroke:none"
               d="m -7,-45 a 3.0003,3.0003 0 0 0 -2.1210938,5.121094 l 7,7 a 3.0003,3.0003 0 0 0 4.2421876,0 l 7,-7 A 3.0003,3.0003 0 0 0 7,-45 Z"
               id="path14000" /></g><g
             id="use13492"
             transform="rotate(-72)"
             style="stroke-width:0.0618878"><path
               style="color:#000000;fill:#000000;stroke-width:0.371325;stroke-linejoin:round;-inkscape-stroke:none"
               d="m 0,-35 7,-7 H -7 Z"
               id="path14004" /><path
               style="color:#000000;fill:#000000;stroke-width:0.0618878;stroke-linejoin:round;-inkscape-stroke:none"
               d="m -7,-45 a 3.0003,3.0003 0 0 0 -2.1210938,5.121094 l 7,7 a 3.0003,3.0003 0 0 0 4.2421876,0 l 7,-7 A 3.0003,3.0003 0 0 0 7,-45 Z"
               id="path14006" /></g></g></g><mask
         id="holes"><rect
           x="-60"
           y="-60"
           width="120"
           height="120"
           fill="#ffffff"
           id="rect13496" /><circle
           id="hole"
           cy="-40"
           r="3"
           cx="0" /><use
           xlink:href="#hole"
           transform="rotate(72)"
           id="use13499" /><use
           xlink:href="#hole"
           transform="rotate(144)"
           id="use13501" /><use
           xlink:href="#hole"
           transform="rotate(-144)"
           id="use13503" /><use
           xlink:href="#hole"
           transform="rotate(-72)"
           id="use13505" /></mask></g><g
       id="g1346"
       style="display:inline"
       inkscape:label="korangar_logo"><path
         id="rect7407"
         style="display:none;opacity:0.621167;fill:url(#linearGradient1300);fill-opacity:1;fill-rule:nonzero;stroke:url(#linearGradient18480);stroke-width:10.601;stroke-linecap:round;stroke-linejoin:round;stroke-dasharray:none;stroke-opacity:1;filter:url(#filter25788)"
         inkscape:label="glow"
         d="m 1921.8765,316.92011 c -1.5431,-0.013 -3.0866,-0.01 -4.6297,0.009 -7.2031,14.29303 -7.6753,23.38498 -7.6853,25.0455 -4.1436,0.21866 -8.279,0.56672 -12.4008,1.04438 -0.2795,-1.63727 -2.2572,-10.52168 -11.7414,-23.41045 -3.0493,0.47824 -6.088,1.01997 -9.1147,1.6247 -4.454,15.37322 -3.2479,24.39695 -2.9523,26.03097 -4.0328,0.97632 -8.0344,2.07884 -11.9982,3.30574 -0.5755,-1.55806 -4.1514,-9.92791 -15.8425,-20.85454 -2.9094,1.03042 -5.7974,2.12106 -8.6614,3.27164 -1.5533,15.92987 1.2902,24.57883 1.881,26.1307 -3.7847,1.70073 -7.515,3.51957 -11.1859,5.45393 -0.852,-1.42577 -5.9053,-8.99623 -19.405,-17.58859 -2.6706,1.54749 -5.3088,3.15019 -7.9127,4.80746 1.4003,15.94406 5.7848,23.92317 6.6507,25.34006 -3.4078,2.3672 -6.7408,4.84066 -9.9937,7.4166 -1.0995,-1.24494 -7.4579,-7.75823 -22.3066,-13.72371 -2.3408,2.01183 -4.6392,4.07248 -6.8942,6.17998 4.306,15.41532 10.0818,22.45276 11.1931,23.68641 -2.9146,2.9531 -5.7362,5.99678 -8.4604,9.12658 -1.3096,-1.02172 -8.7567,-6.2557 -24.4487,-9.39116 -1.9313,2.40771 -3.8121,4.85569 -5.6415,7.34167 7.0654,14.36158 14.0364,20.21769 15.3557,21.22609 -2.3226,3.43841 -4.5372,6.94838 -6.6399,10.52546 -1.4749,-0.76369 -9.7565,-4.53952 -25.7576,-4.73821 -1.4559,2.72156 -2.8549,5.47295 -4.1961,8.25272 9.5837,12.81882 17.512,17.29453 18.9941,18.04335 -1.6512,3.80661 -3.1828,7.6642 -4.5924,11.56673 -1.5902,-0.47969 -10.4251,-2.66993 -26.1902,0.0749 -0.9311,2.94276 -1.8008,5.90475 -2.6086,8.8837 11.7762,10.8395 20.3918,13.78192 21.9863,14.24564 -0.9237,4.04523 -1.7205,8.11861 -2.3891,12.21372 -1.651,-0.17929 -10.7375,-0.70893 -25.7296,4.88601 -0.3745,3.06374 -0.6852,6.1352 -0.9318,9.21184 13.5674,8.49106 22.577,9.80037 24.2296,9.96322 -0.1649,4.14604 -0.1994,8.29648 -0.1044,12.44472 -1.6561,0.12716 -10.685,1.27617 -24.3939,9.53068 0.1949,3.08037 0.4538,6.15621 0.7767,9.22579 14.8967,5.85349 23.9932,5.48538 25.6475,5.3418 0.6001,4.10569 1.3284,8.19137 2.1844,12.25145 -1.6045,0.4293 -10.2684,3.21839 -22.2271,13.85135 0.7575,2.9921 1.5769,5.96807 2.4583,8.92607 15.7177,3.01288 24.5903,0.97535 26.1891,0.52658 v 0.0114 c 1.3443,3.92554 2.8113,7.80799 4.3987,11.64167 -1.4983,0.7168 -9.5031,5.05037 -19.3043,17.69969 1.2944,2.80197 2.6473,5.57632 4.0572,8.32197 16.0051,0.0769 24.3547,-3.55247 25.8454,-4.28397 2.0428,3.61168 4.1978,7.15828 6.4627,10.63501 -1.3411,0.97992 -8.4125,6.71056 -15.7226,20.94549 1.7873,2.5164 3.6266,4.99537 5.517,7.4352 15.7469,-2.86534 23.2871,-7.96722 24.6181,-8.96017 2.6715,3.17483 5.4419,6.26526 8.307,9.26661 -1.1382,1.20966 -7.0365,8.14187 -11.6065,23.47764 2.2193,2.14515 4.4826,4.24378 6.7892,6.29471 14.9522,-5.71006 21.4269,-12.11087 22.5527,-13.33149 3.2095,2.62991 6.5002,5.15869 9.8681,7.58248 -0.8966,1.3982 -5.4204,9.29648 -7.0947,25.21087 2.5757,1.70084 5.1864,3.34757 7.8306,4.93975 13.6484,-8.36029 18.8363,-15.84135 19.7187,-17.24804 3.638,1.99537 7.3375,3.87626 11.0933,5.63996 -0.6243,1.53914 -3.62,10.13418 -2.3414,26.08523 2.8443,1.1986 5.7133,2.33764 8.6051,3.41685 11.8798,-10.72583 15.6047,-19.03319 16.2135,-20.57808 3.9428,1.29293 7.9249,2.46221 11.9409,3.50573 -0.331,1.62765 -1.6965,10.62677 2.4913,26.07128 3.0161,0.65556 6.0455,1.24819 9.0863,1.77767 9.7066,-12.72612 11.8417,-21.57639 12.1563,-23.20685 4.1132,0.54643 8.2429,0.96376 12.3822,1.2516 -0.026,1.66074 0.285,10.75748 7.2394,25.16952 3.0852,0.0902 6.1719,0.11624 9.2583,0.078 7.203,-14.29304 7.6754,-23.38501 7.6854,-25.0455 4.1435,-0.21867 8.279,-0.56724 12.4008,-1.0449 0.2794,1.63728 2.2567,10.5222 11.7408,23.41097 3.0493,-0.47826 6.0885,-1.01997 9.1152,-1.6247 4.454,-15.37322 3.2479,-24.39697 2.9523,-26.03097 4.0328,-0.97632 8.0339,-2.07887 11.9977,-3.30574 0.5754,1.55803 4.152,9.92792 15.843,20.85454 2.9095,-1.03042 5.7969,-2.12105 8.661,-3.27164 1.5533,-15.92987 -1.2903,-24.57885 -1.8811,-26.1307 3.7848,-1.70073 7.5155,-3.5196 11.1864,-5.45393 0.852,1.42575 5.9053,8.99622 19.4051,17.58859 2.6706,-1.54748 5.3088,-3.15019 7.9127,-4.80746 -1.4002,-15.94408 -5.7849,-23.92317 -6.6508,-25.34006 3.4078,-2.36722 6.7407,-4.84067 9.9937,-7.4166 1.0994,1.24495 7.458,7.75824 22.3066,13.72371 2.3407,-2.01185 4.6392,-4.07249 6.8942,-6.17998 -4.3061,-15.41531 -10.0821,-22.45276 -11.1936,-23.68641 2.9148,-2.95309 5.7362,-5.99678 8.4604,-9.12658 1.3095,1.02172 8.7567,6.25568 24.4487,9.39116 1.9312,-2.40771 3.8121,-4.85569 5.6415,-7.34167 -7.0653,-14.3616 -14.0357,-20.2177 -15.3551,-21.2261 2.3227,-3.43838 4.5366,-6.94889 6.6393,-10.52597 1.475,0.76369 9.7568,4.54004 25.7576,4.73873 1.4559,-2.72158 2.8552,-5.47294 4.1967,-8.25272 -9.584,-12.81882 -17.512,-17.29454 -18.9942,-18.04335 1.6513,-3.80661 3.1828,-7.6642 4.5925,-11.56673 1.5902,0.4796 10.4246,2.66993 26.1896,-0.0749 0.9311,-2.94276 1.8008,-5.90475 2.6086,-8.8837 -11.7763,-10.8395 -20.3918,-13.78192 -21.9862,-14.24564 0.9236,-4.04522 1.7205,-8.11862 2.389,-12.21373 1.6512,0.17931 10.7379,0.70894 25.7302,-4.886 0.3745,-3.06374 0.685,-6.1352 0.9317,-9.21184 -13.5675,-8.49108 -22.5769,-9.80037 -24.2295,-9.96322 0.1649,-4.14606 0.1988,-8.29648 0.1038,-12.44472 1.6561,-0.12716 10.6854,-1.27618 24.3944,-9.53068 -0.1949,-3.08037 -0.4538,-6.15674 -0.7767,-9.22631 -14.8967,-5.85349 -23.9937,-5.48487 -25.648,-5.34128 -0.6001,-4.10571 -1.3285,-8.19188 -2.1844,-12.25197 1.6044,-0.42928 10.2689,-3.21787 22.2276,-13.85083 -0.7576,-2.99211 -1.5773,-5.96806 -2.4588,-8.92607 -15.7184,-3.01655 -24.5925,-0.98307 -26.1922,-0.53795 -1.3443,-3.92554 -2.8114,-7.80799 -4.3987,-11.64167 1.4983,-0.71682 9.5025,-5.05039 19.3038,-17.69969 -1.2944,-2.80197 -2.6472,-5.57631 -4.0571,-8.32198 -16.0053,-0.0769 -24.3548,3.55249 -25.8455,4.28398 -2.0427,-3.6117 -4.1979,-7.15829 -6.4627,-10.63501 1.341,-0.97993 8.413,-6.71055 15.7231,-20.94549 -1.7873,-2.5164 -3.627,-4.99536 -5.5175,-7.43521 -15.7469,2.86537 -23.2866,7.96722 -24.6176,8.96018 -2.6716,-3.17486 -5.442,-6.26524 -8.307,-9.26662 1.1381,-1.20966 7.0367,-8.14187 11.6065,-23.47763 -2.2191,-2.14515 -4.4831,-4.24378 -6.7897,-6.29471 -14.9523,5.71004 -21.4268,12.11087 -22.5526,13.33149 -3.2094,-2.6299 -6.5003,-5.15868 -9.8682,-7.58249 0.8965,-1.3982 5.421,-9.29648 7.0952,-25.21086 -2.5757,-1.70083 -5.1863,-3.34757 -7.8305,-4.93975 -13.6484,8.36028 -18.8368,15.84134 -19.7192,17.24804 -3.638,-1.99539 -7.3376,-3.87627 -11.0934,-5.63996 0.6243,-1.53913 3.6205,-10.13419 2.342,-26.08523 -2.8443,-1.1986 -5.7135,-2.33764 -8.6052,-3.41685 -11.8799,10.72583 -15.6047,19.03319 -16.2135,20.57807 -3.9428,-1.29292 -7.9255,-2.46219 -11.9414,-3.50573 0.3309,-1.62763 1.6965,-10.62675 -2.4913,-26.07127 -3.0161,-0.65555 -6.0455,-1.24819 -9.0863,-1.77767 -9.7067,12.7261 -11.8418,21.57639 -12.1563,23.20685 -4.1132,-0.54644 -8.2423,-0.96376 -12.3817,-1.2516 0.026,-1.66074 -0.285,-10.75747 -7.2394,-25.16953 -1.5425,-0.0451 -3.0855,-0.0743 -4.6286,-0.0873 z m -1.8764,46.06799 A 177.01163,177.01163 0 0 1 2097.0115,540.00003 177.01163,177.01163 0 0 1 1920.0001,717.01145 177.01163,177.01163 0 0 1 1742.9887,540.00003 177.01163,177.01163 0 0 1 1920.0001,362.9881 Z m 0,19.4815 c -0.3002,1.38529 -3.1756,14.56837 -6.5304,20.37912 -3.2609,5.64784 -13.2496,18.79981 -13.9211,31.4265 -0.6712,12.62675 5.2643,15.43058 5.2643,15.43058 l 0.9565,36.18332 c -0.3063,-0.0586 -0.5902,-0.11771 -0.9049,-0.17621 -51.8724,-9.63572 -47.7355,-79.81167 -47.7355,-79.81167 -4.0332,1.55368 -31.6213,40.54642 -11.3813,70.97241 10.4673,15.73533 40.5983,20.72173 60.3199,20.36362 l 1.7616,66.69257 c -14.0062,-5.95683 -40.3756,-17.23243 -41.8822,-18.34358 -2.0522,-1.51347 -0.3669,-10.46138 -0.3669,-10.46138 l 21.7367,0.0816 c 0,0 0.5403,-5.01012 -0.7292,-7.9375 -1.27,-2.92746 -3.6269,-3.80227 -18.0402,-13.07052 -14.4128,-9.26834 -39.655,-10.99571 -39.655,-10.99571 0,0 -2.1977,2.94928 6.4549,4.74751 8.6524,1.79824 11.6446,4.5878 12.3228,7.95869 0.6783,3.37094 -12.4398,7.36307 -25.6243,15.11484 -13.1843,7.75184 -9.5604,14.04497 -9.4289,26.29917 0.1314,12.25421 -3.5069,13.34836 -6.1298,26.0134 -2.6229,12.66504 6.4588,10.31187 8.2713,10.85618 1.8127,0.54426 2.0358,1.43687 -1.5947,14.96911 -3.6305,13.53228 -1.0049,13.46533 0.6924,12.59355 1.6974,-0.87173 7.6132,-1.09526 9.4744,-1.22111 1.8615,-0.12575 0.4914,-6.69096 3.4597,-6.15725 2.9684,0.5337 1.6958,0.52053 3.7393,15.25488 2.0435,14.73435 4.8043,14.98045 7.1355,-3.83336 2.3311,-18.8138 5.5866,-20.82999 14.4947,-31.8487 8.9086,-11.01872 12.9896,-1.48937 15.8471,2.40244 2.858,3.89182 1.5762,26.03286 3.375,27.13168 1.7988,1.09888 10.5575,-11.65841 11.6882,-20.38222 1.1306,-8.72379 -5.1485,-19.24896 -5.1485,-19.24896 0,0 1.3902,-1.24326 2.8913,-1.99574 1.0251,-0.51378 17.3754,5.71699 27.7487,9.75961 l 1.3906,52.62883 10.0485,53.2846 10.0484,-53.2846 1.3907,-52.62883 c 10.3735,-4.04262 26.7234,-10.27339 27.7481,-9.75961 1.5014,0.75248 2.8919,1.99574 2.8919,1.99574 0,0 -6.2793,10.52517 -5.1486,19.24896 1.1308,8.72381 9.8923,21.4811 11.6913,20.38222 1.799,-1.09882 0.514,-23.23986 3.3719,-27.13168 2.8576,-3.89181 6.9384,-13.42116 15.8466,-2.40244 8.9085,11.01871 12.1642,13.0349 14.4957,31.8487 2.3312,18.81381 5.0915,18.56771 7.135,3.83336 2.0432,-14.73435 0.7711,-14.72104 3.7393,-15.25488 2.9683,-0.53371 1.6016,6.03119 3.4628,6.15725 1.8613,0.12574 7.774,0.34926 9.4713,1.22111 1.697,0.87178 4.3231,0.93873 0.6925,-12.59355 -3.6307,-13.53224 -3.4077,-14.42463 -1.5953,-14.96911 1.8128,-0.54431 10.8976,1.80886 8.2744,-10.85618 -2.6226,-12.66504 -6.2638,-13.75919 -6.1324,-26.0134 0.1314,-12.2542 3.7558,-18.54733 -9.4284,-26.29917 -13.1846,-7.75177 -26.303,-11.7439 -25.6253,-15.11484 0.6783,-3.37089 3.6713,-6.16045 12.3238,-7.95869 8.6525,-1.79823 6.4544,-4.74751 6.4544,-4.74751 0,0 -25.2417,1.72737 -39.6549,10.99571 -14.4131,9.26825 -16.7707,10.14306 -18.0403,13.07052 -1.2696,2.92738 -0.7286,7.9375 -0.7286,7.9375 l 21.7397,-0.0816 c 0,0 1.6815,8.94791 -0.3705,10.46138 -1.5065,1.11129 -27.8764,12.39021 -41.8817,18.34668 l 1.7617,-66.69567 c 19.7213,0.35791 49.8525,-4.62829 60.3198,-20.36362 20.24,-30.42599 -7.3486,-69.41873 -11.3817,-70.97241 0,0 4.1369,70.17595 -47.7356,79.81167 -0.3142,0.0587 -0.5989,0.11772 -0.9049,0.17621 l 0.9571,-36.18332 c 0,0 5.9351,-2.80383 5.2637,-15.43058 -0.6712,-12.62669 -10.6571,-25.77866 -13.918,-31.4265 -3.3547,-5.81075 -6.2331,-18.99383 -6.5334,-20.37912 z" /><path
         id="path9230"
         style="display:inline;opacity:1;fill:url(#linearGradient2096);fill-opacity:1;fill-rule:nonzero;stroke-width:0.601185;stroke-linecap:round;stroke-linejoin:round;stroke-dasharray:none"
         inkscape:label="foreground"
         d="m 1921.8765,316.92003 c -1.5431,-0.013 -3.0866,-0.01 -4.6297,0.009 -7.2031,14.29303 -7.6753,23.38498 -7.6853,25.0455 -4.1436,0.21866 -8.279,0.56672 -12.4008,1.04438 -0.2795,-1.63727 -2.2572,-10.52168 -11.7414,-23.41045 -3.0493,0.47824 -6.088,1.01997 -9.1147,1.6247 -4.454,15.37322 -3.2479,24.39695 -2.9523,26.03097 -4.0328,0.97632 -8.0344,2.07884 -11.9982,3.30574 -0.5755,-1.55806 -4.1514,-9.92791 -15.8425,-20.85454 -2.9094,1.03042 -5.7974,2.12106 -8.6614,3.27164 -1.5533,15.92987 1.2902,24.57883 1.881,26.1307 -3.7847,1.70073 -7.515,3.51957 -11.1859,5.45393 -0.852,-1.42577 -5.9053,-8.99623 -19.405,-17.58859 -2.6706,1.54749 -5.3088,3.15019 -7.9127,4.80746 1.4003,15.94406 5.7848,23.92317 6.6507,25.34006 -3.4078,2.3672 -6.7408,4.84066 -9.9937,7.4166 -1.0995,-1.24494 -7.4579,-7.75823 -22.3066,-13.72371 -2.3408,2.01183 -4.6392,4.07248 -6.8942,6.17998 4.306,15.41532 10.0818,22.45276 11.1931,23.68641 -2.9146,2.9531 -5.7362,5.99678 -8.4604,9.12658 -1.3096,-1.02172 -8.7567,-6.2557 -24.4487,-9.39116 -1.9313,2.40771 -3.8121,4.85569 -5.6415,7.34167 7.0654,14.36158 14.0364,20.21769 15.3557,21.22609 -2.3226,3.43841 -4.5372,6.94838 -6.6399,10.52546 -1.4749,-0.76369 -9.7565,-4.53952 -25.7576,-4.73821 -1.4559,2.72156 -2.8549,5.47295 -4.1961,8.25272 9.5837,12.81882 17.512,17.29453 18.9941,18.04335 -1.6512,3.80661 -3.1828,7.6642 -4.5924,11.56673 -1.5902,-0.47969 -10.4251,-2.66993 -26.1902,0.0749 -0.9311,2.94276 -1.8008,5.90475 -2.6086,8.8837 11.7762,10.8395 20.3918,13.78192 21.9863,14.24564 -0.9237,4.04523 -1.7205,8.11861 -2.3891,12.21372 -1.651,-0.17929 -10.7375,-0.70893 -25.7296,4.88601 -0.3745,3.06374 -0.6852,6.1352 -0.9318,9.21184 13.5674,8.49106 22.577,9.80037 24.2296,9.96322 -0.1649,4.14604 -0.1994,8.29648 -0.1044,12.44472 -1.6561,0.12716 -10.685,1.27617 -24.3939,9.53068 0.1949,3.08037 0.4538,6.15621 0.7767,9.22579 14.8967,5.85349 23.9932,5.48538 25.6475,5.3418 0.6001,4.10569 1.3284,8.19137 2.1844,12.25145 -1.6045,0.4293 -10.2684,3.21839 -22.2271,13.85135 0.7575,2.9921 1.5769,5.96807 2.4583,8.92607 15.7177,3.01288 24.5903,0.97535 26.1891,0.52658 v 0.0114 c 1.3443,3.92554 2.8113,7.80799 4.3987,11.64167 -1.4983,0.7168 -9.5031,5.05037 -19.3043,17.69969 1.2944,2.80197 2.6473,5.57632 4.0572,8.32197 16.0051,0.0769 24.3547,-3.55247 25.8454,-4.28397 2.0428,3.61168 4.1978,7.15828 6.4627,10.63501 -1.3411,0.97992 -8.4125,6.71056 -15.7226,20.94549 1.7873,2.5164 3.6266,4.99537 5.517,7.4352 15.7469,-2.86534 23.2871,-7.96722 24.6181,-8.96017 2.6715,3.17483 5.4419,6.26526 8.307,9.26661 -1.1382,1.20966 -7.0365,8.14187 -11.6065,23.47764 2.2193,2.14515 4.4826,4.24378 6.7892,6.29471 14.9522,-5.71006 21.4269,-12.11087 22.5527,-13.33149 3.2095,2.62991 6.5002,5.15869 9.8681,7.58248 -0.8966,1.3982 -5.4204,9.29648 -7.0947,25.21087 2.5757,1.70084 5.1864,3.34757 7.8306,4.93975 13.6484,-8.36029 18.8363,-15.84135 19.7187,-17.24804 3.638,1.99537 7.3375,3.87626 11.0933,5.63996 -0.6243,1.53914 -3.62,10.13418 -2.3414,26.08523 2.8443,1.1986 5.7133,2.33764 8.6051,3.41685 11.8798,-10.72583 15.6047,-19.03319 16.2135,-20.57808 3.9428,1.29293 7.9249,2.46221 11.9409,3.50573 -0.331,1.62765 -1.6965,10.62677 2.4913,26.07128 3.0161,0.65556 6.0455,1.24819 9.0863,1.77767 9.7066,-12.72612 11.8417,-21.57639 12.1563,-23.20685 4.1132,0.54643 8.2429,0.96376 12.3822,1.2516 -0.026,1.66074 0.285,10.75748 7.2394,25.16952 3.0852,0.0902 6.1719,0.11624 9.2583,0.078 7.203,-14.29304 7.6754,-23.38501 7.6854,-25.0455 4.1435,-0.21867 8.279,-0.56724 12.4008,-1.0449 0.2794,1.63728 2.2567,10.5222 11.7408,23.41097 3.0493,-0.47826 6.0885,-1.01997 9.1152,-1.6247 4.454,-15.37322 3.2479,-24.39697 2.9523,-26.03097 4.0328,-0.97632 8.0339,-2.07887 11.9977,-3.30574 0.5754,1.55803 4.152,9.92792 15.843,20.85454 2.9095,-1.03042 5.7969,-2.12105 8.661,-3.27164 1.5533,-15.92987 -1.2903,-24.57885 -1.8811,-26.1307 3.7848,-1.70073 7.5155,-3.5196 11.1864,-5.45393 0.852,1.42575 5.9053,8.99622 19.4051,17.58859 2.6706,-1.54748 5.3088,-3.15019 7.9127,-4.80746 -1.4002,-15.94408 -5.7849,-23.92317 -6.6508,-25.34006 3.4078,-2.36722 6.7407,-4.84067 9.9937,-7.4166 1.0994,1.24495 7.458,7.75824 22.3066,13.72371 2.3407,-2.01185 4.6392,-4.07249 6.8942,-6.17998 -4.3061,-15.41531 -10.0821,-22.45276 -11.1936,-23.68641 2.9148,-2.95309 5.7362,-5.99678 8.4604,-9.12658 1.3095,1.02172 8.7567,6.25568 24.4487,9.39116 1.9312,-2.40771 3.8121,-4.85569 5.6415,-7.34167 -7.0653,-14.3616 -14.0357,-20.2177 -15.3551,-21.2261 2.3227,-3.43838 4.5366,-6.94889 6.6393,-10.52597 1.475,0.76369 9.7568,4.54004 25.7576,4.73873 1.4559,-2.72158 2.8552,-5.47294 4.1967,-8.25272 -9.584,-12.81882 -17.512,-17.29454 -18.9942,-18.04335 1.6513,-3.80661 3.1828,-7.6642 4.5925,-11.56673 1.5902,0.4796 10.4246,2.66993 26.1896,-0.0749 0.9311,-2.94276 1.8008,-5.90475 2.6086,-8.8837 -11.7763,-10.8395 -20.3918,-13.78192 -21.9862,-14.24564 0.9236,-4.04522 1.7205,-8.11862 2.389,-12.21373 1.6512,0.17931 10.7379,0.70894 25.7302,-4.886 0.3745,-3.06374 0.685,-6.1352 0.9317,-9.21184 -13.5675,-8.49108 -22.5769,-9.80037 -24.2295,-9.96322 0.1649,-4.14606 0.1988,-8.29648 0.1038,-12.44472 1.6561,-0.12716 10.6854,-1.27618 24.3944,-9.53068 -0.1949,-3.08037 -0.4538,-6.15674 -0.7767,-9.22631 -14.8967,-5.85349 -23.9937,-5.48487 -25.648,-5.34128 -0.6001,-4.10571 -1.3285,-8.19188 -2.1844,-12.25197 1.6044,-0.42928 10.2689,-3.21787 22.2276,-13.85083 -0.7576,-2.99211 -1.5773,-5.96806 -2.4588,-8.92607 -15.7184,-3.01655 -24.5925,-0.98307 -26.1922,-0.53795 -1.3443,-3.92554 -2.8114,-7.80799 -4.3987,-11.64167 1.4983,-0.71682 9.5025,-5.05039 19.3038,-17.69969 -1.2944,-2.80197 -2.6472,-5.57631 -4.0571,-8.32198 -16.0053,-0.0769 -24.3548,3.55249 -25.8455,4.28398 -2.0427,-3.6117 -4.1979,-7.15829 -6.4627,-10.63501 1.341,-0.97993 8.413,-6.71055 15.7231,-20.94549 -1.7873,-2.5164 -3.627,-4.99536 -5.5175,-7.43521 -15.7469,2.86537 -23.2866,7.96722 -24.6176,8.96018 -2.6716,-3.17486 -5.442,-6.26524 -8.307,-9.26662 1.1381,-1.20966 7.0367,-8.14187 11.6065,-23.47763 -2.2191,-2.14515 -4.4831,-4.24378 -6.7897,-6.29471 -14.9523,5.71004 -21.4268,12.11087 -22.5526,13.33149 -3.2094,-2.6299 -6.5003,-5.15868 -9.8682,-7.58249 0.8965,-1.3982 5.421,-9.29648 7.0952,-25.21086 -2.5757,-1.70083 -5.1863,-3.34757 -7.8305,-4.93975 -13.6484,8.36028 -18.8368,15.84134 -19.7192,17.24804 -3.638,-1.99539 -7.3376,-3.87627 -11.0934,-5.63996 0.6243,-1.53913 3.6205,-10.13419 2.342,-26.08523 -2.8443,-1.1986 -5.7135,-2.33764 -8.6052,-3.41685 -11.8799,10.72583 -15.6047,19.03319 -16.2135,20.57807 -3.9428,-1.29292 -7.9255,-2.46219 -11.9414,-3.50573 0.3309,-1.62763 1.6965,-10.62675 -2.4913,-26.07127 -3.0161,-0.65555 -6.0455,-1.24819 -9.0863,-1.77767 -9.7067,12.7261 -11.8418,21.57639 -12.1563,23.20685 -4.1132,-0.54644 -8.2423,-0.96376 -12.3817,-1.2516 0.026,-1.66074 -0.285,-10.75747 -7.2394,-25.16953 -1.5425,-0.0451 -3.0855,-0.0743 -4.6286,-0.0873 z m -1.8764,46.06799 a 177.01163,177.01163 0 0 1 177.0114,177.01193 177.01163,177.01163 0 0 1 -177.0114,177.01142 177.01163,177.01163 0 0 1 -177.0114,-177.01142 177.01163,177.01163 0 0 1 177.0114,-177.01193 z m 0,19.4815 c -0.3002,1.38529 -3.1756,14.56837 -6.5304,20.37912 -3.2609,5.64784 -13.2496,18.79981 -13.9211,31.4265 -0.6712,12.62675 5.2643,15.43058 5.2643,15.43058 l 0.9565,36.18332 c -0.3063,-0.0586 -0.5902,-0.11771 -0.9049,-0.17621 -51.8724,-9.63572 -47.7355,-79.81167 -47.7355,-79.81167 -4.0332,1.55368 -31.6213,40.54642 -11.3813,70.97241 10.4673,15.73533 40.5983,20.72173 60.3199,20.36362 l 1.7616,66.69257 c -14.0062,-5.95683 -40.3756,-17.23243 -41.8822,-18.34358 -2.0522,-1.51347 -0.3669,-10.46138 -0.3669,-10.46138 l 21.7367,0.0816 c 0,0 0.5403,-5.01012 -0.7292,-7.9375 -1.27,-2.92746 -3.6269,-3.80227 -18.0402,-13.07052 -14.4128,-9.26834 -39.655,-10.99571 -39.655,-10.99571 0,0 -2.1977,2.94928 6.4549,4.74751 8.6524,1.79824 11.6446,4.5878 12.3228,7.95869 0.6783,3.37094 -12.4398,7.36307 -25.6243,15.11484 -13.1843,7.75184 -9.5604,14.04497 -9.4289,26.29917 0.1314,12.25421 -3.5069,13.34836 -6.1298,26.0134 -2.6229,12.66504 6.4588,10.31187 8.2713,10.85618 1.8127,0.54426 2.0358,1.43687 -1.5947,14.96911 -3.6305,13.53228 -1.0049,13.46533 0.6924,12.59355 1.6974,-0.87173 7.6132,-1.09526 9.4744,-1.22111 1.8615,-0.12575 0.4914,-6.69096 3.4597,-6.15725 2.9684,0.5337 1.6958,0.52053 3.7393,15.25488 2.0435,14.73435 4.8043,14.98045 7.1355,-3.83336 2.3311,-18.8138 5.5866,-20.82999 14.4947,-31.8487 8.9086,-11.01872 12.9896,-1.48937 15.8471,2.40244 2.858,3.89182 1.5762,26.03286 3.375,27.13168 1.7988,1.09888 10.5575,-11.65841 11.6882,-20.38222 1.1306,-8.72379 -5.1485,-19.24896 -5.1485,-19.24896 0,0 1.3902,-1.24326 2.8913,-1.99574 1.0251,-0.51378 17.3754,5.71699 27.7487,9.75961 l 1.3906,52.62883 10.0485,53.2846 10.0484,-53.2846 1.3907,-52.62883 c 10.3735,-4.04262 26.7234,-10.27339 27.7481,-9.75961 1.5014,0.75248 2.8919,1.99574 2.8919,1.99574 0,0 -6.2793,10.52517 -5.1486,19.24896 1.1308,8.72381 9.8923,21.4811 11.6913,20.38222 1.799,-1.09882 0.514,-23.23986 3.3719,-27.13168 2.8576,-3.89181 6.9384,-13.42116 15.8466,-2.40244 8.9085,11.01871 12.1642,13.0349 14.4957,31.8487 2.3312,18.81381 5.0915,18.56771 7.135,3.83336 2.0432,-14.73435 0.7711,-14.72104 3.7393,-15.25488 2.9683,-0.53371 1.6016,6.03119 3.4628,6.15725 1.8613,0.12574 7.774,0.34926 9.4713,1.22111 1.697,0.87178 4.3231,0.93873 0.6925,-12.59355 -3.6307,-13.53224 -3.4077,-14.42463 -1.5953,-14.96911 1.8128,-0.54431 10.8976,1.80886 8.2744,-10.85618 -2.6226,-12.66504 -6.2638,-13.75919 -6.1324,-26.0134 0.1314,-12.2542 3.7558,-18.54733 -9.4284,-26.29917 -13.1846,-7.75177 -26.303,-11.7439 -25.6253,-15.11484 0.6783,-3.37089 3.6713,-6.16045 12.3238,-7.95869 8.6525,-1.79823 6.4544,-4.74751 6.4544,-4.74751 0,0 -25.2417,1.72737 -39.6549,10.99571 -14.4131,9.26825 -16.7707,10.14306 -18.0403,13.07052 -1.2696,2.92738 -0.7286,7.9375 -0.7286,7.9375 l 21.7397,-0.0816 c 0,0 1.6815,8.94791 -0.3705,10.46138 -1.5065,1.11129 -27.8764,12.39021 -41.8817,18.34668 l 1.7617,-66.69567 c 19.7213,0.35791 49.8525,-4.62829 60.3198,-20.36362 20.24,-30.42599 -7.3486,-69.41873 -11.3817,-70.97241 0,0 4.1369,70.17595 -47.7356,79.81167 -0.3142,0.0587 -0.5989,0.11772 -0.9049,0.17621 l 0.9571,-36.18332 c 0,0 5.9351,-2.80383 5.2637,-15.43058 -0.6712,-12.62669 -10.6571,-25.77866 -13.918,-31.4265 -3.3547,-5.81075 -6.2331,-18.99383 -6.5334,-20.37912 z" /></g><g
       id="g894"
       inkscape:label="accents"><path
         id="rect6840-7"
         style="fill:#ffffff;fill-opacity:1;stroke:none;stroke-width:10.601;stroke-linecap:round;stroke-linejoin:round"
         d="m 2051.8942,321.19864 -19.5627,19.56283 v 7.87662 l 27.4395,-27.43945 z m 36.4267,0 -55.9894,55.9895 v 7.87749 l 63.8669,-63.86699 z m 36.4276,0 -92.417,92.41703 v 7.87662 l 100.2936,-100.29365 z m 36.427,0 -128.844,128.84413 v 7.87662 l 136.7207,-136.72075 z m 18.2725,18.1542 -128.9624,128.9624 h 7.877 L 2179.448,347.23032 Z m 0,36.42753 -92.5349,92.53487 h 7.8771 l 84.6578,-84.65782 z m 0,36.42667 -56.1081,56.1082 h 7.877 l 48.2311,-48.23115 z m 0,36.42796 -19.6807,19.68024 h 7.8772 l 11.8035,-11.80362 z"
         inkscape:label="lines_big" /><path
         id="rect6840-7-0"
         style="fill:#ffffff;fill-opacity:1;stroke:none;stroke-width:10.601;stroke-linecap:round;stroke-linejoin:round"
         d="m 1705.2938,396.84693 -7.9354,7.93542 v 3.19506 l 11.1305,-11.13048 z m 14.776,0 -22.7114,22.71145 v 3.19541 l 25.9069,-25.90686 z m 14.7764,0 -37.4878,37.48783 v 3.19505 l 40.6829,-40.68288 z m 14.7762,0 -52.264,52.26403 v 3.19506 l 55.4591,-55.45909 z m 7.412,7.36403 -52.312,52.312 h 3.1952 l 49.1168,-49.1166 z m 0,14.77638 -37.5356,37.53562 h 3.1952 l 34.3404,-34.3404 z m 0,14.77603 -22.7595,22.75959 h 3.1952 l 19.5643,-19.56437 z m 0,14.77655 -7.9832,7.98304 h 3.1953 l 4.7879,-4.78799 z"
         inkscape:label="lines_small" /><path
         id="rect14564"
         style="opacity:1;fill:#ffffff;fill-opacity:1;stroke:none;stroke-width:10.601;stroke-linecap:round;stroke-linejoin:round"
         d="m 1976.9759,709.42935 -14.5652,14.56529 14.5652,14.5653 14.5653,-14.5653 z m 14.5653,14.56529 14.5653,14.5653 14.5653,-14.5653 -14.5653,-14.56529 z m 29.1306,0 14.5652,14.5653 -14.5652,14.56522 14.5653,14.56529 14.5652,-14.56529 -14.5652,-14.56522 14.5652,-14.5653 -14.5653,-14.56529 z m 14.5653,43.69581 -14.5653,14.5653 14.5653,14.56529 14.5652,-14.5653 z m -14.5653,14.5653 -14.5653,-14.5653 -14.5653,14.5653 14.5653,14.56529 z m -29.1306,0 -14.5653,-14.5653 -14.5652,14.5653 14.5652,14.56529 z m -14.5653,-14.5653 14.5653,-14.56529 -14.5653,-14.56522 -14.5652,14.56522 z m 14.5653,-14.56529 14.5653,14.56529 14.5653,-14.56529 -14.5653,-14.56522 z"
         inkscape:label="chess" /></g><g
       id="g879"
       inkscape:label="text_left"><text
         xml:space="preserve"
         style="font-style:normal;font-weight:normal;font-size:176.389px;line-height:1.25;font-family:sans-serif;fill:#000000;fill-opacity:1;stroke:none;stroke-width:0.264583"
         x="545.7597"
         y="615.93317"
         id="text481-2"
         inkscape:label="shadow"><tspan
           sodipodi:role="line"
           id="tspan479-6"
           style="font-style:normal;font-variant:normal;font-weight:bold;font-stretch:normal;font-size:176.389px;font-family:'Noto Sans Mono CJK JP';-inkscape-font-specification:'Noto Sans Mono CJK JP Bold';stroke-width:0.264583"
           x="545.7597"
           y="615.93317"></tspan></text><text
         xml:space="preserve"
         style="font-style:normal;font-weight:normal;font-size:176.389px;line-height:1.25;font-family:sans-serif;fill:#ffffff;fill-opacity:1;stroke:none;stroke-width:0.264583"
         x="536.76178"
         y="597.52588"
         id="text481"
         inkscape:label="foreground"><tspan
           sodipodi:role="line"
           id="tspan479"
           style="font-style:normal;font-variant:normal;font-weight:bold;font-stretch:normal;font-size:176.389px;font-family:'Noto Sans Mono CJK JP';-inkscape-font-specification:'Noto Sans Mono CJK JP Bold';stroke-width:0.264583;fill:#ffffff"
           x="536.76178"
           y="597.52588"></tspan></text></g><g
       id="g889"
       transform="translate(1963.0924)"
       inkscape:label="text_right"><text
         xml:space="preserve"
         style="font-style:normal;font-weight:normal;font-size:176.389px;line-height:1.25;font-family:sans-serif;fill:#000000;fill-opacity:1;stroke:none;stroke-width:0.264583"
         x="545.7597"
         y="615.93317"
         id="text883"
         inkscape:label="shadow"><tspan
           sodipodi:role="line"
           id="tspan881"
           style="font-style:normal;font-variant:normal;font-weight:bold;font-stretch:normal;font-size:176.389px;font-family:'Noto Sans Mono CJK JP';-inkscape-font-specification:'Noto Sans Mono CJK JP Bold';stroke-width:0.264583"
           x="545.7597"
           y="615.93317"></tspan></text><text
         xml:space="preserve"
         style="font-style:normal;font-weight:normal;font-size:176.389px;line-height:1.25;font-family:sans-serif;fill:#ffffff;fill-opacity:1;stroke:none;stroke-width:0.264583"
         x="536.76178"
         y="597.52588"
         id="text887"
         inkscape:label="foreground"><tspan
           sodipodi:role="line"
           id="tspan885"
           style="font-style:normal;font-variant:normal;font-weight:bold;font-stretch:normal;font-size:176.389px;font-family:'Noto Sans Mono CJK JP';-inkscape-font-specification:'Noto Sans Mono CJK JP Bold';fill:#ffffff;stroke-width:0.264583"
           x="536.76178"
           y="597.52588"></tspan></text></g></g></svg>
